<svg xmlns="http://www.w3.org/2000/svg" viewBox="0 0 293.01 38.69"><g id="Layer_2" data-name="Layer 2"><g id="Layer_1-2" data-name="Layer 1"><path d="M40,10v16.1H37.18V18.83H29.86v7.26H27V10h2.82V16.4h7.32V10H40ZM24.22,26.09H21.4V10h2.82Zm-5.59,0h-3L8.33,14.25H8.26V26.09H5.58V10h3L15.9,21.85h0V10h2.68ZM49.93,18,40,0H3.31A3.32,3.32,0,0,0,0,3.32V32.69A3.31,3.31,0,0,0,3.31,36H39.94Z" fill="#636569"/><path d="M42.44,36l10-18L42.47,0H45a4.67,4.67,0,0,1,3.68,2.17L57.38,18,48.61,33.83A4.67,4.67,0,0,1,44.93,36Z" fill="#636569"/><path d="M42.44,36l10-18L42.47,0H45a4.67,4.67,0,0,1,3.68,2.17L57.38,18,48.61,33.83A4.67,4.67,0,0,1,44.93,36Z" fill="#1c578e"/><path d="M61.94,12.17H64L69,20.32h0V12.17h1.85V23.24h-2l-5-8.14h0v8.14H61.94Z" fill="#636569"/><path d="M79.67,21.45c0,.44.1.61.42.61a2.6,2.6,0,0,0,.44,0v1.22a4.7,4.7,0,0,1-1.12.2c-.71,0-1.22-.25-1.36-1a4.12,4.12,0,0,1-2.78,1c-1.44,0-2.74-.77-2.74-2.34,0-2,1.59-2.32,3.08-2.49,1.27-.24,2.4-.1,2.4-1.14s-.94-1.08-1.65-1.08c-1,0-1.69.4-1.77,1.27H72.82C72.94,15.61,74.7,15,76.46,15c1.57,0,3.21.64,3.21,2.33Zm-1.76-2.23a6.31,6.31,0,0,1-2.17.48c-.76.13-1.45.4-1.45,1.33s1,1,1.63,1c.78,0,2-.41,2-1.52Z" fill="#636569"/><path d="M80.77,15.22h1.34v-2.4h1.76v2.4h1.6v1.32h-1.6v4.28c0,.73.06,1.1.86,1.1a3.12,3.12,0,0,0,.74-.06v1.36c-.39,0-.76.09-1.15.09-1.84,0-2.18-.71-2.21-2V16.54H80.77Z" fill="#636569"/><path d="M86.79,12.17h1.76v1.67H86.79Zm0,3.05h1.76v8H86.79Z" fill="#636569"/><path d="M90.1,19.22a4.05,4.05,0,1,1,8.1,0c0,2.47-1.48,4.23-4,4.23S90.1,21.69,90.1,19.22Zm6.33,0c0-1.38-.7-2.82-2.28-2.82s-2.28,1.44-2.28,2.82.7,2.84,2.28,2.84S96.43,20.62,96.43,19.22Z" fill="#636569"/><path d="M99.67,15.22h1.67V16.4l0,0a2.88,2.88,0,0,1,2.5-1.43,2.53,2.53,0,0,1,2.83,2.73v5.51h-1.76v-5c0-1.26-.53-1.8-1.57-1.8a2,2,0,0,0-1.94,2.11v4.73H99.67Z" fill="#636569"/><path d="M115.28,21.45c0,.44.09.61.41.61a2.6,2.6,0,0,0,.44,0v1.22a4.61,4.61,0,0,1-1.12.2c-.71,0-1.22-.25-1.36-1a4.12,4.12,0,0,1-2.78,1c-1.44,0-2.74-.77-2.74-2.34,0-2,1.6-2.32,3.08-2.49,1.28-.24,2.41-.1,2.41-1.14s-1-1.08-1.66-1.08c-1,0-1.69.4-1.77,1.27h-1.77c.13-2.06,1.88-2.67,3.65-2.67,1.56,0,3.21.64,3.21,2.33Zm-1.77-2.23a6.25,6.25,0,0,1-2.17.48c-.76.13-1.44.4-1.44,1.33s1,1,1.62,1c.78,0,2-.41,2-1.52Z" fill="#636569"/><path d="M117.23,12.17H119V23.24h-1.76Z" fill="#636569"/><path d="M125.47,12.17h1.94V23.24h-1.94Z" fill="#636569"/><path d="M129.53,15.22h1.68V16.4l0,0a2.88,2.88,0,0,1,2.5-1.43,2.53,2.53,0,0,1,2.83,2.73v5.51H134.8v-5c0-1.26-.52-1.8-1.56-1.8a2,2,0,0,0-1.94,2.11v4.73h-1.77Z" fill="#636569"/><path d="M139.76,20.66c.1,1,.87,1.4,1.82,1.4.66,0,1.83-.14,1.78-1.06s-1.33-1-2.62-1.33-2.57-.74-2.57-2.37,1.89-2.3,3.35-2.3c1.64,0,3.13.69,3.34,2.47H143c-.16-.84-.85-1.07-1.63-1.07-.51,0-1.46.12-1.46.82,0,.87,1.31,1,2.61,1.29s2.59.76,2.59,2.34c0,1.91-1.92,2.6-3.58,2.6-2,0-3.52-.9-3.55-2.79Z" fill="#636569"/><path d="M145.67,15.22H147v-2.4h1.77v2.4h1.6v1.32h-1.6v4.28c0,.73.06,1.1.85,1.1a3.17,3.17,0,0,0,.75-.06v1.36c-.39,0-.76.09-1.15.09-1.85,0-2.19-.71-2.22-2V16.54h-1.33Z" fill="#636569"/><path d="M151.68,12.17h1.77v1.67h-1.77Zm0,3.05h1.77v8h-1.77Z" fill="#636569"/><path d="M154.56,15.22h1.34v-2.4h1.77v2.4h1.59v1.32h-1.59v4.28c0,.73.06,1.1.85,1.1a3.08,3.08,0,0,0,.74-.06v1.36c-.39,0-.76.09-1.15.09-1.84,0-2.18-.71-2.21-2V16.54h-1.34Z" fill="#636569"/><path d="M167.57,23.24h-1.74V22.12h0a2.67,2.67,0,0,1-2.28,1.33c-2.09,0-3-1.05-3-3.14V15.22h1.77v4.92c0,1.41.57,1.92,1.53,1.92,1.48,0,2-.95,2-2.19V15.22h1.77Z" fill="#636569"/><path d="M168.62,15.22H170v-2.4h1.76v2.4h1.6v1.32h-1.6v4.28c0,.73.07,1.1.86,1.1a3.12,3.12,0,0,0,.74-.06v1.36c-.39,0-.76.09-1.15.09-1.84,0-2.18-.71-2.21-2V16.54h-1.34Z" fill="#636569"/><path d="M176,19.69a2.13,2.13,0,0,0,2.15,2.37,1.86,1.86,0,0,0,2-1.34h1.67a3.5,3.5,0,0,1-3.63,2.73c-2.51,0-3.92-1.75-3.92-4.21a3.88,3.88,0,1,1,7.66.45Zm4.12-1.17a2.06,2.06,0,1,0-4.12,0Z" fill="#636569"/><path d="M187.14,19.22a4.05,4.05,0,1,1,8.1,0c0,2.47-1.48,4.23-4.05,4.23S187.14,21.69,187.14,19.22Zm6.33,0c0-1.38-.7-2.82-2.28-2.82s-2.28,1.44-2.28,2.82.7,2.84,2.28,2.84S193.47,20.62,193.47,19.22Z" fill="#636569"/><path d="M196.71,15.22h1.67V16.4l0,0a2.88,2.88,0,0,1,2.5-1.43,2.54,2.54,0,0,1,2.84,2.73v5.51H202v-5c0-1.26-.53-1.8-1.57-1.8a2,2,0,0,0-1.94,2.11v4.73h-1.76Z" fill="#636569"/><path d="M210.16,12.17h4.59c3.41,0,4.88,2.48,4.88,5.53s-1.47,5.54-4.88,5.54h-4.59Zm1.94,9.48H214c3,0,3.69-1.73,3.69-3.95S217,13.75,214,13.75H212.1Z" fill="#636569"/><path d="M221.1,15.22h1.66v1.55h0A2.6,2.6,0,0,1,225.13,15a3.52,3.52,0,0,1,.67.05v1.71a4.9,4.9,0,0,0-.76-.08c-1.21,0-2.17,1-2.17,2.74v3.82H221.1Z" fill="#636569"/><path d="M233.6,23.24h-1.74V22.12h0a2.68,2.68,0,0,1-2.28,1.33c-2.09,0-3-1.05-3-3.14V15.22h1.77v4.92c0,1.41.57,1.92,1.53,1.92,1.47,0,2-.95,2-2.19V15.22h1.77Z" fill="#636569"/><path d="M242.87,22.82c0,2.4-1.41,3.59-3.94,3.59-1.61,0-3.43-.62-3.58-2.49h1.76c.22,1,1,1.18,1.93,1.18a1.82,1.82,0,0,0,2.06-2.05V21.82h0a2.74,2.74,0,0,1-2.4,1.42c-2.55,0-3.6-1.93-3.6-4.22s1.35-4,3.63-4a2.52,2.52,0,0,1,2.37,1.32h0v-1.1h1.77Zm-1.77-3.77c0-1.38-.62-2.65-2.16-2.65s-2.11,1.46-2.11,2.79.64,2.65,2.11,2.65S241.1,20.41,241.1,19.05Z" fill="#636569"/><path d="M252.17,12.17h2.06l4.26,11.07h-2.08l-1-2.93H251l-1,2.93h-2Zm-.69,6.66h3.38l-1.66-4.76h0Z" fill="#636569"/><path d="M259.34,12.17h1.77v4.09h0A2.91,2.91,0,0,1,263.53,15c2.52,0,3.75,1.93,3.75,4.27,0,2.15-1.09,4.18-3.46,4.18A2.88,2.88,0,0,1,261,22.14h0v1.1h-1.67Zm4,4.23c-1.49,0-2.25,1.13-2.25,2.84s.83,2.82,2.25,2.82c1.62,0,2.22-1.43,2.22-2.82S264.75,16.4,263.29,16.4Z" fill="#636569"/><path d="M275.8,23.24h-1.73V22.12h0a2.69,2.69,0,0,1-2.28,1.33c-2.1,0-3-1.05-3-3.14V15.22h1.77v4.92c0,1.41.58,1.92,1.54,1.92,1.47,0,2-.95,2-2.19V15.22h1.76Z" fill="#636569"/><path d="M279,20.66c.1,1,.87,1.4,1.82,1.4.66,0,1.83-.14,1.78-1.06s-1.33-1-2.62-1.33-2.57-.74-2.57-2.37,1.89-2.3,3.35-2.3c1.64,0,3.13.69,3.34,2.47h-1.84c-.16-.84-.85-1.07-1.63-1.07-.51,0-1.46.12-1.46.82,0,.87,1.31,1,2.61,1.29s2.59.76,2.59,2.34c0,1.91-1.92,2.6-3.58,2.6-2,0-3.52-.9-3.55-2.79Z" fill="#636569"/><path d="M287.08,19.69a2.14,2.14,0,0,0,2.16,2.37,1.86,1.86,0,0,0,1.95-1.34h1.68a3.51,3.51,0,0,1-3.63,2.73c-2.51,0-3.92-1.75-3.92-4.21a3.88,3.88,0,1,1,7.66.45Zm4.13-1.17a2.07,2.07,0,1,0-4.13,0Z" fill="#636569"/><path d="M64.89,28.58h1.45l1.37,7.86h-1.4L66,34.36H62.86l-1.21,2.08H60.18ZM65.36,30h0l-1.89,3.34h2.4Z" fill="#636569"/><path d="M73.52,36.44h-1.2l.18-.77,0,0a2,2,0,0,1-1.78,1,2.07,2.07,0,0,1-2.22-2.33c0-1.84,1.14-3.67,3.1-3.67a1.69,1.69,0,0,1,1.71.94h0l.63-3H75.2Zm-1.79-4.86c-1.4,0-2,1.4-2,2.68A1.19,1.19,0,0,0,71,35.6C72.32,35.6,73,34.09,73,33A1.2,1.2,0,0,0,71.73,31.58Z" fill="#636569"/><path d="M75.47,30.75h1.3l.47,4.15h0l2.2-4.15h1.32l-3.14,5.69h-1.4Z" fill="#636569"/><path d="M85.52,34.79a3.44,3.44,0,0,0-.11.56c0,.15.07.25.27.25s.3-.06.44-.07l-.2.91a4.65,4.65,0,0,1-1,.15.73.73,0,0,1-.76-.73,2.69,2.69,0,0,1-1.91.73,1.58,1.58,0,0,1-1.77-1.52c0-1.4,1.13-1.88,2.38-2,.42,0,.85-.06,1.26-.1a.66.66,0,0,0,.66-.74c0-.54-.44-.69-1-.69-.68,0-1.24.19-1.42.9H81.23c.28-1.41,1.33-1.89,2.69-1.89,2.07,0,2.13.92,2.13,1.32a3.74,3.74,0,0,1-.11.86Zm-2.77.81c1.22,0,1.63-.88,1.79-2l0,0a1.3,1.3,0,0,1-.78.26c-.7.06-2,0-2,1C81.75,35.42,82.29,35.6,82.75,35.6Z" fill="#636569"/><path d="M87.76,30.75h1.17l-.17.82,0,0a2.41,2.41,0,0,1,2-1c1.14,0,1.66.6,1.66,1.51a3.35,3.35,0,0,1-.06.71l-.76,3.63H90.33l.73-3.51a2.85,2.85,0,0,0,.08-.53c0-.19,0-.82-.86-.82a1.69,1.69,0,0,0-1.19.55,2.61,2.61,0,0,0-.62,1.23l-.64,3.08H86.58Z" fill="#636569"/><path d="M97.4,32.63c0-.7-.44-1.05-1.12-1.05-1.25,0-1.87,1.45-1.87,2.53,0,.85.33,1.49,1.27,1.49a1.45,1.45,0,0,0,1.43-1.12h1.25a2.71,2.71,0,0,1-2.89,2.11,2.2,2.2,0,0,1-2.31-2.43,3.3,3.3,0,0,1,3.23-3.57,2,2,0,0,1,2.27,2Z" fill="#636569"/><path d="M100.19,30.75h1.25l-1.18,5.69H99Zm.45-2.17h1.24l-.24,1.19H100.4Z" fill="#636569"/><path d="M102.84,30.75H104l-.17.82,0,0a2.41,2.41,0,0,1,2-1c1.14,0,1.66.6,1.66,1.51a3.35,3.35,0,0,1-.06.71l-.75,3.63h-1.26l.73-3.51a2.94,2.94,0,0,0,.09-.53c0-.19,0-.82-.87-.82a1.69,1.69,0,0,0-1.19.55,2.61,2.61,0,0,0-.62,1.23l-.64,3.08h-1.25Z" fill="#636569"/><path d="M113.19,36.28c-.38,1.74-1.08,2.41-2.87,2.41-1.27,0-2.42-.48-2.45-1.81h1.26c0,.64.58.88,1.3.88,1.12,0,1.4-.67,1.6-1.6l.12-.56,0,0a1.89,1.89,0,0,1-1.6.86,2.1,2.1,0,0,1-2.22-2.34c0-1.71,1-3.51,2.94-3.51a1.7,1.7,0,0,1,1.76,1.1h0l.17-.94h1.19Zm-2.43-.83c1.34,0,1.89-1.37,1.89-2.52a1.2,1.2,0,0,0-1.27-1.35c-1.22,0-1.81,1.42-1.81,2.46C109.57,34.81,109.91,35.45,110.76,35.45Z" fill="#636569"/><path d="M121.74,28.58h1.45l1.36,7.86h-1.4l-.31-2.08h-3.13l-1.21,2.08H117Zm.47,1.39h0l-1.9,3.34h2.4Z" fill="#636569"/><path d="M130.37,36.44h-1.2l.18-.77,0,0a2,2,0,0,1-1.79,1,2.06,2.06,0,0,1-2.21-2.33c0-1.84,1.13-3.67,3.09-3.67a1.7,1.7,0,0,1,1.72.94h0l.63-3H132Zm-1.79-4.86c-1.4,0-2,1.4-2,2.68a1.18,1.18,0,0,0,1.29,1.34c1.29,0,2-1.51,2-2.65A1.2,1.2,0,0,0,128.58,31.58Z" fill="#636569"/><path d="M137.09,36.44h-1.2l.18-.77,0,0a2,2,0,0,1-1.79,1,2.06,2.06,0,0,1-2.21-2.33c0-1.84,1.14-3.67,3.09-3.67a1.7,1.7,0,0,1,1.72.94h0l.63-3h1.25Zm-1.79-4.86c-1.4,0-2,1.4-2,2.68a1.18,1.18,0,0,0,1.29,1.34c1.29,0,2-1.51,2-2.65A1.2,1.2,0,0,0,135.3,31.58Z" fill="#636569"/><path d="M139.71,30.75H141l-1.17,5.69h-1.26Zm.45-2.17h1.24l-.24,1.19h-1.24Z" fill="#636569"/><path d="M145.69,32.63c0-.7-.44-1.05-1.12-1.05-1.25,0-1.87,1.45-1.87,2.53,0,.85.33,1.49,1.27,1.49a1.45,1.45,0,0,0,1.43-1.12h1.25a2.71,2.71,0,0,1-2.89,2.11,2.2,2.2,0,0,1-2.31-2.43,3.3,3.3,0,0,1,3.23-3.57,2,2,0,0,1,2.27,2Z" fill="#636569"/><path d="M149.18,29h1.22l-.35,1.71h1.13l-.2.93h-1.13l-.58,2.79a3.18,3.18,0,0,0-.11.61c0,.24.08.42.45.42a3.26,3.26,0,0,0,.67,0l-.21.92a4.53,4.53,0,0,1-1,.12c-.91,0-1.14-.53-1.14-1.05a3.93,3.93,0,0,1,.08-.64l.65-3.12h-1l.2-.93h1Z" fill="#636569"/><path d="M152.14,30.75h1.25l-1.17,5.69H151Zm.45-2.17h1.24l-.24,1.19h-1.24Z" fill="#636569"/><path d="M153.88,34.1a3.32,3.32,0,0,1,3.24-3.51A2.24,2.24,0,0,1,159.61,33a3.25,3.25,0,0,1-3.25,3.55A2.27,2.27,0,0,1,153.88,34.1Zm1.25,0c0,.83.4,1.46,1.31,1.46,1.29,0,1.91-1.4,1.91-2.55,0-.84-.39-1.47-1.3-1.47C155.76,31.58,155.13,33,155.13,34.14Z" fill="#636569"/><path d="M161.31,30.75h1.18l-.18.82,0,0a2.39,2.39,0,0,1,1.95-1c1.15,0,1.67.6,1.67,1.51a4.17,4.17,0,0,1-.06.71l-.76,3.63h-1.25l.72-3.51a2.26,2.26,0,0,0,.09-.53c0-.19.05-.82-.87-.82a1.71,1.71,0,0,0-1.19.55,2.69,2.69,0,0,0-.61,1.23l-.64,3.08h-1.25Z" fill="#636569"/><path d="M171.1,33.84c0,1.22.66,1.66,1.81,1.66.74,0,1.75-.34,1.75-1.25s-.92-1.11-1.89-1.38c-.69-.19-2.14-.54-2.14-2s1.07-2.45,2.93-2.45c1.63,0,3,.66,2.9,2.51h-1.32c0-1-.54-1.38-1.61-1.38-.37,0-1.53.11-1.53,1.15,0,.77.77,1,1.64,1.18,1.11.28,2.39.58,2.39,2.23,0,1.22-.89,2.54-3.27,2.54-1.84,0-3-.82-3-2.78Z" fill="#636569"/><path d="M181.15,32.63c0-.7-.44-1.05-1.13-1.05-1.25,0-1.87,1.45-1.87,2.53,0,.85.33,1.49,1.27,1.49a1.44,1.44,0,0,0,1.43-1.12h1.25a2.7,2.7,0,0,1-2.89,2.11,2.2,2.2,0,0,1-2.31-2.43,3.3,3.3,0,0,1,3.23-3.57,2,2,0,0,1,2.27,2Z" fill="#636569"/><path d="M183.93,30.75h1.25L184,36.44h-1.25Zm.45-2.17h1.24l-.24,1.19h-1.24Z" fill="#636569"/><path d="M190.87,34.68a2.59,2.59,0,0,1-2.74,1.91,2.36,2.36,0,0,1-2.49-2.49,3.28,3.28,0,0,1,3.16-3.51c2,0,2.42,1.51,2.42,2.62a4.49,4.49,0,0,1-.06.71h-4.24a2.3,2.3,0,0,0,0,.36,1.2,1.2,0,0,0,1.35,1.32,1.33,1.33,0,0,0,1.37-.92ZM190,33.09c0-.13,0-.24,0-.35a1.11,1.11,0,0,0-1.2-1.16A1.78,1.78,0,0,0,187,33.09Z" fill="#636569"/><path d="M192.7,30.75h1.17l-.17.82,0,0a2.41,2.41,0,0,1,2-1c1.14,0,1.66.6,1.66,1.51a3.35,3.35,0,0,1-.06.71l-.76,3.63h-1.25l.73-3.51a2.85,2.85,0,0,0,.08-.53c0-.19,0-.82-.87-.82a1.67,1.67,0,0,0-1.18.55,2.61,2.61,0,0,0-.62,1.23l-.64,3.08h-1.25Z" fill="#636569"/><path d="M202.34,32.63c0-.7-.44-1.05-1.12-1.05-1.25,0-1.87,1.45-1.87,2.53,0,.85.33,1.49,1.27,1.49a1.45,1.45,0,0,0,1.43-1.12h1.25a2.71,2.71,0,0,1-2.89,2.11,2.2,2.2,0,0,1-2.31-2.43,3.3,3.3,0,0,1,3.23-3.57,2,2,0,0,1,2.27,2Z" fill="#636569"/><path d="M209.42,34.68a2.59,2.59,0,0,1-2.74,1.91,2.36,2.36,0,0,1-2.49-2.49,3.27,3.27,0,0,1,3.16-3.51,2.3,2.3,0,0,1,2.42,2.62,3.47,3.47,0,0,1-.07.71h-4.23a1.54,1.54,0,0,0,0,.36,1.21,1.21,0,0,0,1.36,1.32,1.31,1.31,0,0,0,1.36-.92Zm-.92-1.59c0-.13,0-.24,0-.35a1.11,1.11,0,0,0-1.2-1.16,1.78,1.78,0,0,0-1.72,1.51Z" fill="#636569"/></g></g></svg>